<svg xmlns="http://www.w3.org/2000/svg" viewBox="0 0 1000 1000"><defs><style>.cls-2{fill:#f8f8f8}</style></defs><path fill="#181818" d="M0 0h1000v1000H0z" id="Square"/><g id="Bose"><path class="cls-2" d="M568.88 451.49a23.05 23.05 0 0 0-19.73 11.42c-3.75 6.51-14.32 24.92-18.13 31.44a9.06 9.06 0 0 0 7.89 13.72h62.92s-9.49 16.42-11.29 19.55a9.11 9.11 0 0 1-8 4.76h-9.78a3.9 3.9 0 0 1-3.44-5.64c1.18-2.13 3.77-6.51 3.77-6.51H516l-8.27 14.32a9.21 9.21 0 0 0 7.81 13.94h106.62a23.14 23.14 0 0 0 20.07-11.69c4.06-7.07 13.6-23.71 17.72-30.78s-1.09-14.09-7.65-14.09h-62.9L601 471.8a9.19 9.19 0 0 1 7.76-4.22h9.81a3.85 3.85 0 0 1 3.54 5.33c-1 1.83-4 6.84-4 6.84h57s5.4-9.31 8.56-14.79a9.17 9.17 0 0 0-8-13.47zM523.77 451.49H417.29a23.33 23.33 0 0 0-19.88 11.31c-4.15 7.15-37.93 65.69-41.6 72s1.37 13.65 7.93 13.65h106.67a23.23 23.23 0 0 0 19.88-11.33c3.75-6.48 38-65.8 41.55-72a9.16 9.16 0 0 0-8.07-13.63zm-53.65 21.83c-1.54 2.63-29.86 51.71-31.43 54.47a9.24 9.24 0 0 1-7.93 4.59h-9.9a3.87 3.87 0 0 1-3.41-5.62L449 472.05a9.24 9.24 0 0 1 7.88-4.47h9.93a3.8 3.8 0 0 1 3.31 5.74zM372.11 451.49h-120.3l-46.71 80.9H97v16.12h221.6a23 23 0 0 0 20-11.52c4.25-7.34 10.92-19 13.78-24s-.16-11.37-5.48-13a23.42 23.42 0 0 0 19.56-11.3c3.87-6.65 10-17.37 13.51-23.46a9.14 9.14 0 0 0-7.86-13.74zm-63.88 62.29c-1.42 2.51-6.24 10.81-8.14 14.1a8.93 8.93 0 0 1-7.84 4.51h-30.19l14.05-24.32h28.8a3.82 3.82 0 0 1 3.32 5.71zm23.34-40.48c-1.43 2.51-6.25 10.82-8.14 14.1a8.92 8.92 0 0 1-7.85 4.51H285.4l14-24.32h28.8a3.82 3.82 0 0 1 3.37 5.71zM707.48 451.49l-55.99 97h135.72l9.3-16.1h-78.76l14.04-24.32h78.76l9.32-16.14H741.1l14.06-24.36 147.83.01v-16.09H707.48z"/></g></svg>